/vscmnt/brussel_pixiu_data/_data_brussel/112/vsc11236/PredSimResults/SUBJ07mtu3D/worker2.mot
version=1
nRows=4
nColumns=50
inDegrees=yes
endheader
                time	         pelvis_tilt	         pelvis_list	     pelvis_rotation	           pelvis_tx	           pelvis_ty	           pelvis_tz	       hip_flexion_r	     hip_adduction_r	      hip_rotation_r	        knee_angle_r	       ankle_angle_r	         mtp_angle_r	       hip_flexion_l	     hip_adduction_l	      hip_rotation_l	        knee_angle_l	       ankle_angle_l	         mtp_angle_l	    lumbar_extension	      lumbar_bending	     lumbar_rotation	 ercspn_r/activation	 intobl_r/activation	 extobl_r/activation	    abd_r/activation	    add_r/activation	hamstrings_r/activation	bifemsh_r/activation	glut_max_r/activation	iliopsoas_r/activation	rect_fem_r/activation	  vasti_r/activation	gastroc_r/activation	 soleus_r/activation	tib_ant_r/activation	 ercspn_l/activation	 intobl_l/activation	 extobl_l/activation	    abd_l/activation	    add_l/activation	hamstrings_l/activation	bifemsh_l/activation	glut_max_l/activation	iliopsoas_l/activation	rect_fem_l/activation	  vasti_l/activation	gastroc_l/activation	 soleus_l/activation	tib_ant_l/activation	
          0.55849222	         -5.81843999	          1.10053483	         -6.17064910	          0.68136050	          0.88101746	          0.00603586	        -14.59713300	         -3.77550834	        -26.73207540	         -7.48404850	        -36.36796815	         58.31573096	         28.88838813	         -3.98859654	        -28.13328822	        -12.02366658	        -17.10547570	          0.53718469	         -7.82783403	         -0.61234400	         12.61576928	          0.01545109	          0.01000002	          0.01000000	          0.05191560	          0.04648410	          0.11965993	          0.24191169	          0.01352739	          0.68224330	          0.01000015	          0.01000000	          0.21419883	          0.17871442	          0.01000000	          0.16507461	          0.11524285	          0.07271715	          0.01000000	          0.10715504	          0.01000001	          0.56663222	          0.00999999	          0.73104761	          0.19296468	          0.00999999	          0.00999999	          0.00999999	          0.23551821	
          0.56966206	         -6.08623222	          0.89639642	         -6.44961973	          0.69755894	          0.87814469	          0.00489852	        -14.14896802	         -4.38510632	        -27.06914395	         -9.59272246	        -37.35555065	         58.10432195	         28.99853752	         -3.79135815	        -28.26417410	        -13.41973914	        -14.95460204	          1.31090425	         -7.48770357	         -1.00320119	         13.18905866	          0.05074350	          0.01186166	          0.01000000	          0.04376764	          0.03918859	          0.12902749	          0.20394455	          0.01979624	          0.63438785	          0.01000011	          0.01000002	          0.18058113	          0.16715376	          0.01000000	          0.13916676	          0.09715591	          0.06130446	          0.01000000	          0.09033746	          0.01000000	          0.48548611	          0.00999999	          0.61631242	          0.16267959	          0.00999999	          0.01186168	          0.01000000	          0.19855449	
          0.58083191	         -6.33759445	          0.60983731	         -6.67584335	          0.71425810	          0.87534101	          0.00417204	        -13.69827374	         -4.92514221	        -27.49837632	        -11.79386954	        -38.43110067	         57.33087751	         28.71142392	         -4.15401220	        -28.89508193	        -14.99311672	        -12.40343898	          2.81946212	         -7.09893387	         -1.37439825	         13.65270372	          0.13502682	          0.01000002	          0.14036348	          0.03689847	          0.03303809	          0.11563164	          0.17193623	          0.01668929	          0.62837096	          0.01000009	          0.00999999	          0.15223959	          0.15169592	          0.01000000	          0.11732505	          0.21690081	          0.05168296	          0.01000002	          0.07615933	          0.01489050	          0.40929090	          0.02604834	          0.51958447	          0.13714763	          0.01000000	          0.01000006	          0.09115042	          0.16739210	
          0.59200175	         -6.57413898	          0.38993906	         -6.86646928	          0.73102678	          0.87280871	          0.00343529	        -13.10139628	         -5.63938103	        -27.98311261	        -14.29000569	        -39.52684428	         55.95436425	         28.22109141	         -4.49040358	        -29.05536223	        -16.36753471	        -10.07769537	          4.88139595	         -6.71492846	         -1.83259369	         14.06588141	          0.20351569	          0.01000001	          0.19998679	          0.03110739	          0.02785289	          0.11330695	          0.14495149	          0.01406997	          0.59085270	          0.01000007	          0.01186163	          0.12834615	          0.12788781	          0.01000000	          0.09891132	          0.20343604	          0.04357151	          0.01564899	          0.06420641	          0.02436288	          0.35501552	          0.05723116	          0.43803762	          0.11562281	          0.00999999	          0.01406996	          0.16052166	          0.14112053	
